<?xml version="1.0" encoding="UTF-8" standalone="no"?>
<!DOCTYPE svg PUBLIC "-//W3C//DTD SVG 1.1//EN"
 "http://www.w3.org/Graphics/SVG/1.1/DTD/svg11.dtd">
<!-- Generated by graphviz version 7.0.4 (20221203.1631)
 -->
<!-- Title: G Pages: 1 -->
<svg width="943pt" height="434pt"
 viewBox="0.00 0.00 943.00 433.96" xmlns="http://www.w3.org/2000/svg" xmlns:xlink="http://www.w3.org/1999/xlink">
<g id="graph0" class="graph" transform="scale(1 1) rotate(0) translate(4 429.96)">
<title>G</title>
<polygon fill="white" stroke="none" points="-4,4 -4,-429.96 939,-429.96 939,4 -4,4"/>
<text text-anchor="middle" x="467.5" y="-7.8" font-family="YouYuan,Helvetica,Arial,sans-serif" font-size="14.00">{ 概率统计知识地图 }</text>
<g id="clust6" class="cluster">
<title>cluster_chp_7</title>
<polygon fill="none" stroke="red" points="706,-325.22 706,-417.96 927,-417.96 927,-325.22 706,-325.22"/>
<text text-anchor="middle" x="816.5" y="-402.76" font-family="YouYuan,Helvetica,Arial,sans-serif" font-size="14.00">第七章:假设检验</text>
</g>
<g id="clust1" class="cluster">
<title>cluster_core_skill</title>
<polygon fill="lightgrey" stroke="lightgrey" points="233,-334.09 233,-409.09 698,-409.09 698,-334.09 233,-334.09"/>
<text text-anchor="middle" x="465.5" y="-393.89" font-family="YouYuan,Helvetica,Arial,sans-serif" font-size="14.00">统计学素养</text>
</g>
<g id="clust3" class="cluster">
<title>cluster_chp_0_prelim</title>
<polygon fill="none" stroke="red" points="34,-131.74 34,-317.22 352,-317.22 352,-131.74 34,-131.74"/>
<text text-anchor="middle" x="193" y="-302.02" font-family="YouYuan,Helvetica,Arial,sans-serif" font-size="14.00">第〇章:预备知识</text>
</g>
<g id="clust2" class="cluster">
<title>cluster_underlying</title>
<polygon fill="none" stroke="pink" points="8,-31 8,-123.74 632,-123.74 632,-31 8,-31"/>
<text text-anchor="middle" x="320" y="-108.54" font-family="YouYuan,Helvetica,Arial,sans-serif" font-size="14.00" fill="grey">超纲知识</text>
</g>
<g id="clust4" class="cluster">
<title>cluster_chp_1_probability_space</title>
<polygon fill="none" stroke="red" points="487,-131.74 487,-224.48 675,-224.48 675,-131.74 487,-131.74"/>
<text text-anchor="middle" x="581" y="-209.28" font-family="YouYuan,Helvetica,Arial,sans-serif" font-size="14.00">第一章:概率空间</text>
</g>
<!-- core_modeling -->
<g id="node1" class="node">
<title>core_modeling</title>
<ellipse fill="#000000" stroke="#000000" cx="641" cy="-360.09" rx="49.29" ry="18"/>
<text text-anchor="middle" x="641" y="-356.39" font-family="YouYuan,Helvetica,Arial,sans-serif" font-size="14.00" fill="white">概率建模</text>
</g>
<!-- core_proofing -->
<g id="node2" class="node">
<title>core_proofing</title>
<ellipse fill="#000000" stroke="#000000" cx="524" cy="-360.09" rx="49.29" ry="18"/>
<text text-anchor="middle" x="524" y="-356.39" font-family="YouYuan,Helvetica,Arial,sans-serif" font-size="14.00" fill="white">数学证明</text>
</g>
<!-- core_describing -->
<g id="node3" class="node">
<title>core_describing</title>
<ellipse fill="#000000" stroke="#000000" cx="407" cy="-360.09" rx="49.29" ry="18"/>
<text text-anchor="middle" x="407" y="-356.39" font-family="YouYuan,Helvetica,Arial,sans-serif" font-size="14.00" fill="white">数据描述</text>
</g>
<!-- core_simulation -->
<g id="node4" class="node">
<title>core_simulation</title>
<ellipse fill="#000000" stroke="#000000" cx="290" cy="-360.09" rx="49.29" ry="18"/>
<text text-anchor="middle" x="290" y="-356.39" font-family="YouYuan,Helvetica,Arial,sans-serif" font-size="14.00" fill="white">计算模拟</text>
</g>
<!-- prelim_python -->
<g id="node5" class="node">
<title>prelim_python</title>
<ellipse fill="none" stroke="black" cx="290" cy="-259.35" rx="53.98" ry="26.74"/>
<text text-anchor="middle" x="290" y="-263.15" font-family="YouYuan,Helvetica,Arial,sans-serif" font-size="14.00">python</text>
<text text-anchor="middle" x="290" y="-248.15" font-family="YouYuan,Helvetica,Arial,sans-serif" font-size="14.00">编程基础</text>
</g>
<!-- core_simulation&#45;&gt;prelim_python -->
<g id="edge1" class="edge">
<title>core_simulation&#45;&gt;prelim_python</title>
<path fill="none" stroke="black" d="M290,-341.89C290,-329.65 290,-312.74 290,-297.49"/>
<polygon fill="black" stroke="black" points="293.5,-297.77 290,-287.77 286.5,-297.77 293.5,-297.77"/>
</g>
<!-- underlying_msr_thry -->
<g id="node6" class="node">
<title>underlying_msr_thry</title>
<ellipse fill="none" stroke="lightgrey" cx="581" cy="-65.87" rx="43.27" ry="26.74"/>
<text text-anchor="middle" x="581" y="-69.67" font-family="YouYuan,Helvetica,Arial,sans-serif" font-size="14.00" fill="grey">测度的</text>
<text text-anchor="middle" x="581" y="-54.67" font-family="YouYuan,Helvetica,Arial,sans-serif" font-size="14.00" fill="grey">概念</text>
</g>
<!-- underlying_bc_lemma -->
<g id="node7" class="node">
<title>underlying_bc_lemma</title>
<ellipse fill="none" stroke="lightgrey" cx="434" cy="-65.87" rx="86.03" ry="26.74"/>
<text text-anchor="middle" x="434" y="-69.67" font-family="YouYuan,Helvetica,Arial,sans-serif" font-size="14.00" fill="grey">Borel&#45;Cantelli</text>
<text text-anchor="middle" x="434" y="-54.67" font-family="YouYuan,Helvetica,Arial,sans-serif" font-size="14.00" fill="grey"> 引理</text>
</g>
<!-- underlying_fn_series -->
<g id="node8" class="node">
<title>underlying_fn_series</title>
<ellipse fill="none" stroke="lightgrey" cx="75" cy="-65.87" rx="59.29" ry="18"/>
<text text-anchor="middle" x="75" y="-62.17" font-family="YouYuan,Helvetica,Arial,sans-serif" font-size="14.00" fill="grey">函数项级数</text>
</g>
<!-- underlying_manifold -->
<g id="node9" class="node">
<title>underlying_manifold</title>
<ellipse fill="none" stroke="lightgrey" cx="241" cy="-65.87" rx="88.28" ry="18"/>
<text text-anchor="middle" x="241" y="-62.17" font-family="YouYuan,Helvetica,Arial,sans-serif" font-size="14.00" fill="grey">流形与外微分形式</text>
</g>
<!-- prelim_multivar_diff -->
<g id="node10" class="node">
<title>prelim_multivar_diff</title>
<ellipse fill="none" stroke="black" cx="96" cy="-166.61" rx="53.98" ry="26.74"/>
<text text-anchor="middle" x="96" y="-170.41" font-family="YouYuan,Helvetica,Arial,sans-serif" font-size="14.00">多元函数</text>
<text text-anchor="middle" x="96" y="-155.41" font-family="YouYuan,Helvetica,Arial,sans-serif" font-size="14.00">求导</text>
</g>
<!-- prelim_multivar_diff&#45;&gt;underlying_fn_series -->
<g id="edge3" class="edge">
<title>prelim_multivar_diff&#45;&gt;underlying_fn_series</title>
<path fill="none" stroke="black" d="M90.48,-139.67C87.58,-126.01 84.01,-109.23 81.03,-95.23"/>
<polygon fill="black" stroke="black" points="84.51,-94.78 79.01,-85.73 77.67,-96.24 84.51,-94.78"/>
</g>
<!-- prelim_series -->
<g id="node11" class="node">
<title>prelim_series</title>
<ellipse fill="none" stroke="black" cx="188" cy="-259.35" rx="29.8" ry="18"/>
<text text-anchor="middle" x="188" y="-255.65" font-family="YouYuan,Helvetica,Arial,sans-serif" font-size="14.00">级数</text>
</g>
<!-- prelim_matrix_diff -->
<g id="node12" class="node">
<title>prelim_matrix_diff</title>
<ellipse fill="none" stroke="black" cx="91" cy="-259.35" rx="49.29" ry="18"/>
<text text-anchor="middle" x="91" y="-255.65" font-family="YouYuan,Helvetica,Arial,sans-serif" font-size="14.00">矩阵微分</text>
</g>
<!-- prelim_matrix_diff&#45;&gt;underlying_manifold -->
<g id="edge2" class="edge">
<title>prelim_matrix_diff&#45;&gt;underlying_manifold</title>
<path fill="none" stroke="black" d="M122.31,-245.03C137.29,-238.21 153.21,-230.16 159,-224.48 196.76,-187.38 220.74,-129.2 232.45,-94.87"/>
<polygon fill="black" stroke="black" points="235.68,-96.24 235.48,-85.65 229.03,-94.05 235.68,-96.24"/>
</g>
<!-- prelim_matrix_diff&#45;&gt;prelim_multivar_diff -->
<g id="edge4" class="edge">
<title>prelim_matrix_diff&#45;&gt;prelim_multivar_diff</title>
<path fill="none" stroke="black" d="M91.96,-240.85C92.53,-230.6 93.26,-217.25 93.95,-204.76"/>
<polygon fill="black" stroke="black" points="97.43,-205.33 94.48,-195.15 90.44,-204.95 97.43,-205.33"/>
</g>
<!-- sp_ajbr_event -->
<g id="node13" class="node">
<title>sp_ajbr_event</title>
<ellipse fill="none" stroke="black" cx="581" cy="-166.61" rx="85.62" ry="26.74"/>
<text text-anchor="middle" x="581" y="-170.41" font-family="YouYuan,Helvetica,Arial,sans-serif" font-size="14.00">σ代数和</text>
<text text-anchor="middle" x="581" y="-155.41" font-family="YouYuan,Helvetica,Arial,sans-serif" font-size="14.00">随机事件的概率</text>
</g>
<!-- sp_ajbr_event&#45;&gt;underlying_msr_thry -->
<g id="edge5" class="edge">
<title>sp_ajbr_event&#45;&gt;underlying_msr_thry</title>
<path fill="none" stroke="black" d="M581,-139.41C581,-128.61 581,-115.9 581,-104.16"/>
<polygon fill="black" stroke="black" points="584.5,-104.36 581,-94.36 577.5,-104.36 584.5,-104.36"/>
</g>
<!-- hypo_test_definition -->
<g id="node14" class="node">
<title>hypo_test_definition</title>
<ellipse fill="none" stroke="black" cx="865" cy="-360.09" rx="53.98" ry="26.74"/>
<text text-anchor="middle" x="865" y="-363.89" font-family="YouYuan,Helvetica,Arial,sans-serif" font-size="14.00">假设检验</text>
<text text-anchor="middle" x="865" y="-348.89" font-family="YouYuan,Helvetica,Arial,sans-serif" font-size="14.00">的定义</text>
</g>
<!-- hypo_test_stu_t_test -->
<g id="node15" class="node">
<title>hypo_test_stu_t_test</title>
<ellipse fill="none" stroke="black" cx="754" cy="-360.09" rx="39.79" ry="18"/>
<text text-anchor="middle" x="754" y="-356.39" font-family="YouYuan,Helvetica,Arial,sans-serif" font-size="14.00">t&#45;检验</text>
</g>
</g>
</svg>
